<?xml version="1.0" standalone="no"?>
<!DOCTYPE svg PUBLIC "-//W3C//DTD SVG 20010904//EN"
 "http://www.w3.org/TR/2001/REC-SVG-20010904/DTD/svg10.dtd">
<svg version="1.0" xmlns="http://www.w3.org/2000/svg"
 width="200.000000pt" height="200.000000pt" viewBox="0 0 200.000000 200.000000"
 preserveAspectRatio="xMidYMid meet">
<metadata>
Created by potrace 1.10, written by Peter Selinger 2001-2011
</metadata>
<g transform="translate(0.000000,200.000000) scale(0.100000,-0.100000)"
fill="#fff" stroke="none">
<path d="M680 1623 c-149 -25 -238 -125 -248 -278 -6 -98 9 -159 73 -290 117
-238 344 -491 554 -615 160 -95 358 -81 445 33 61 80 85 187 49 220 -26 22
-147 81 -231 111 -68 24 -75 25 -97 10 -13 -9 -36 -36 -50 -60 -32 -54 -52
-56 -121 -10 -117 79 -217 192 -279 316 -56 110 -53 128 33 165 66 28 72 42
56 128 -31 166 -51 235 -75 254 -17 13 -75 22 -109 16z m90 -53 c8 -5 12 -10
8 -10 -4 0 0 -19 8 -42 34 -98 49 -194 34 -232 -5 -13 -20 -26 -36 -30 -41
-11 -84 -60 -84 -96 0 -33 67 -183 97 -217 11 -12 28 -34 39 -50 28 -40 157
-163 172 -163 6 0 12 -4 12 -8 0 -18 82 -54 110 -49 25 6 90 57 72 57 -4 0 1
5 11 11 9 6 14 15 11 21 -4 6 -2 8 4 4 6 -3 13 -2 17 4 8 13 41 4 155 -43 109
-45 130 -60 130 -95 0 -65 -83 -173 -151 -197 -63 -22 -153 -18 -233 10 -38
13 -72 28 -75 33 -3 5 -25 19 -48 32 -24 13 -43 27 -43 32 0 4 -4 8 -9 8 -5 0
-24 15 -43 33 -18 17 -46 42 -62 54 -29 22 -87 88 -173 198 -26 33 -51 63 -56
66 -4 3 -14 17 -21 30 -54 100 -66 121 -66 113 -1 -11 -30 54 -35 76 -2 8 -13
41 -25 72 -19 52 -22 80 -19 200 0 10 4 20 10 23 5 4 9 13 9 21 0 18 51 79
104 122 9 7 16 11 16 8 0 -2 12 -1 28 4 38 12 114 12 132 0z"/>
</g>
</svg>
