<svg width="320" height="128" viewBox="0 0 320 128" fill="none" xmlns="http://www.w3.org/2000/svg">

<path d="M295.869 63.6641C295.517 63.6641 295.149 63.5517 294.797 63.4714C294.084 63.3115 293.383 63.1023 292.7 62.8451C291.957 62.5741 291.14 62.5882 290.407 62.8846C289.674 63.1811 289.077 63.739 288.729 64.4509L288.377 65.1896C286.822 64.3051 285.386 63.2259 284.102 61.978C282.858 60.6907 281.782 59.25 280.9 57.6904L281.637 57.3532C282.347 57.0046 282.903 56.405 283.198 55.6698C283.494 54.9346 283.508 54.1157 283.238 53.3707C282.983 52.6787 282.775 51.9706 282.613 51.2511C282.533 50.8978 282.469 50.5284 282.421 50.1751C282.227 49.044 281.636 48.0197 280.756 47.2867C279.875 46.5536 278.762 46.16 277.618 46.1766H272.799C272.122 46.1758 271.453 46.3184 270.835 46.5951C270.217 46.8718 269.664 47.2765 269.213 47.7825C268.753 48.3022 268.41 48.9158 268.208 49.581C268.006 50.2463 267.95 50.9475 268.044 51.6365C268.915 58.3201 271.959 64.5291 276.706 69.3005C281.463 74.0615 287.653 77.1151 294.317 77.9881C294.524 78.004 294.733 78.004 294.941 77.9881C296.121 77.9898 297.261 77.5553 298.143 76.7676C298.647 76.3151 299.051 75.7606 299.327 75.1407C299.603 74.5208 299.745 73.8494 299.744 73.1706V68.3531C299.735 67.2435 299.345 66.171 298.639 65.3166C297.933 64.4623 296.955 63.8786 295.869 63.6641ZM296.654 73.299C296.653 73.5231 296.606 73.7446 296.515 73.9493C296.424 74.1539 296.291 74.3372 296.126 74.4874C295.95 74.6477 295.741 74.7669 295.514 74.8363C295.287 74.9058 295.048 74.9237 294.813 74.8888C288.838 74.1062 283.286 71.3753 279.011 67.1166C274.732 62.825 271.986 57.2366 271.198 51.2189C271.164 50.9834 271.181 50.7431 271.251 50.5153C271.32 50.2876 271.439 50.0782 271.599 49.9022C271.75 49.7338 271.935 49.5995 272.142 49.5082C272.349 49.4168 272.573 49.3705 272.799 49.3722H277.602C277.972 49.3632 278.334 49.483 278.626 49.7114C278.918 49.9398 279.122 50.2625 279.203 50.6248C279.203 51.0584 279.347 51.508 279.443 51.9416C279.628 52.7828 279.875 53.6093 280.18 54.4145L277.938 55.4744C277.553 55.6518 277.254 55.9752 277.106 56.3736C276.946 56.7646 276.946 57.2031 277.106 57.5941C279.41 62.5444 283.377 66.5237 288.313 68.8348C288.703 68.9955 289.14 68.9955 289.53 68.8348C289.927 68.6865 290.249 68.3862 290.426 67.9998L291.435 65.7517C292.261 66.0538 293.106 66.3005 293.964 66.4903C294.381 66.5867 294.829 66.667 295.261 66.7312C295.622 66.8128 295.944 67.0174 296.172 67.3102C296.399 67.603 296.519 67.9658 296.51 68.337L296.654 73.299ZM287.208 46C286.84 46 286.456 46 286.087 46C285.663 46.0362 285.27 46.2401 284.995 46.5669C284.721 46.8936 284.586 47.3164 284.623 47.7423C284.659 48.1682 284.862 48.5623 285.188 48.8378C285.513 49.1134 285.935 49.2479 286.36 49.2117H287.208C289.756 49.2117 292.199 50.2268 294.001 52.0337C295.802 53.8406 296.814 56.2913 296.814 58.8466C296.814 59.1357 296.814 59.4086 296.814 59.6977C296.779 60.1213 296.912 60.5418 297.185 60.8669C297.458 61.192 297.849 61.3952 298.271 61.432H298.399C298.8 61.4336 299.187 61.2844 299.483 61.0139C299.779 60.7433 299.964 60.3711 300 59.9707C300 59.6013 300 59.2159 300 58.8466C300 55.4423 298.653 52.1771 296.254 49.7684C293.856 47.3596 290.602 46.0043 287.208 46V46ZM290.41 58.8466C290.41 59.2725 290.579 59.6809 290.879 59.9821C291.179 60.2833 291.586 60.4524 292.011 60.4524C292.436 60.4524 292.843 60.2833 293.143 59.9821C293.443 59.6809 293.612 59.2725 293.612 58.8466C293.612 57.143 292.937 55.5092 291.736 54.3046C290.535 53.1 288.907 52.4233 287.208 52.4233C286.784 52.4233 286.376 52.5925 286.076 52.8936C285.776 53.1948 285.607 53.6032 285.607 54.0291C285.607 54.455 285.776 54.8635 286.076 55.1646C286.376 55.4658 286.784 55.635 287.208 55.635C288.057 55.635 288.872 55.9733 289.472 56.5756C290.073 57.1779 290.41 57.9948 290.41 58.8466Z" fill="black"/>
<rect x="134" y="39" width="100" height="47" rx="23.5" fill="white"/>
<path d="M194.439 46.416C193.578 45.4979 192.378 44.3334 190.731 43.471C189.137 42.6364 187.545 42.2096 185.405 42.0423C185.046 42.0142 184.684 42 184.33 42C179.902 42 176.828 44.1446 175.029 45.9437C173.017 47.9549 170.692 51.3549 171.034 56.1315C171.287 59.6591 173.308 62.432 174.931 64.6601L175 64.7555C175.29 65.1527 175.591 65.5417 175.91 65.9545C176.914 67.2508 177.952 68.5912 178.697 70.2939L178.783 70.4888C179.088 71.1799 179.466 72.0399 179.421 72.4825C179.388 72.7989 179.251 72.9535 179.093 73.1325C178.874 73.3811 178.601 73.6905 178.776 74.3533C179.004 75.2135 180.088 75.2135 181.343 75.2135H187.885C188.92 75.2135 189.991 75.2135 190.219 74.353C190.391 73.7055 190.092 73.3425 189.852 73.051C189.716 72.8861 189.599 72.7437 189.573 72.565C189.451 71.7008 190.384 69.7384 191.303 68.2808C191.884 67.3608 192.506 66.5618 193.109 65.7893C193.387 65.4322 193.651 65.0948 193.9 64.7574C194.032 64.5787 194.165 64.4001 194.299 64.2219C195.969 61.9829 197.696 59.6681 197.961 56.2264C198.336 51.3585 195.915 47.9904 194.439 46.416ZM191.948 63.0183C191.828 63.1762 191.709 63.3337 191.59 63.491C191.382 63.7668 191.174 64.0406 190.965 64.3123C189.09 66.7624 187.318 69.0798 186.903 72.6043H182.088C181.571 68.8779 179.765 66.5013 177.854 63.9885C177.706 63.7929 177.556 63.5959 177.406 63.3976L177.151 63.0605C175.663 61.0972 173.976 58.8721 173.734 56.272C173.351 52.1653 175.252 49.3649 176.913 47.7389C179.035 45.661 181.597 44.6074 184.525 44.6074C184.86 44.6074 185.203 44.6216 185.546 44.6497C190.714 45.072 194.89 49.287 195.261 54.4543C195.535 58.2897 193.711 60.6935 191.947 63.0183H191.948Z" fill="#231F20"/>
<path d="M188.432 79.4802C188.011 79.3912 187.404 79.3514 186.462 79.3514C185.974 79.3514 185.445 79.3621 184.933 79.3725C184.426 79.3826 183.903 79.3933 183.426 79.3933C183.216 79.3933 182.998 79.3894 182.768 79.3855C182.531 79.3815 182.287 79.3774 182.046 79.3774C181.191 79.3774 179.412 79.3774 179.327 80.4984C179.303 80.8057 179.403 81.0638 179.622 81.2651C180.111 81.7138 181.095 81.7743 181.992 81.7743C182.409 81.7743 182.847 81.7588 183.271 81.7438C183.688 81.7289 184.083 81.7152 184.451 81.7152C184.716 81.7152 185.016 81.7161 185.333 81.7169C186.021 81.7188 186.785 81.7211 187.436 81.7152C188.542 81.7051 189.588 81.6957 189.668 80.691C189.744 79.7583 188.985 79.5976 188.432 79.4802Z" fill="#231F20"/>
<path d="M55.5606 43.3307C55.5644 43.277 55.5644 43.2232 55.5606 43.1695C55.5374 42.0564 55.0693 40.9965 54.2566 40.2171C53.4439 39.4377 52.3512 39.0007 51.213 39C50.0748 38.9993 48.9815 39.4348 48.1678 40.2132C47.354 40.9916 46.8844 42.0508 46.8598 43.1639C47.1946 45.2662 48.0738 45.9287 48.7575 47.4842L39.2421 47.3011L39.0568 56.5304C37.2536 55.843 35.9585 54.6074 34.4288 54.5787C34.3735 54.5752 34.318 54.5752 34.2627 54.5787C33.125 54.601 32.0416 55.0585 31.2447 55.853C30.4478 56.6475 30.001 57.7158 30 58.8288C29.999 59.9417 30.4439 61.0108 31.2393 61.8066C32.0348 62.6025 33.1174 63.0619 34.255 63.0862C36.5316 62.74 37.1565 61.7938 38.9622 61.1145L38.7705 70.5432L48.3275 70.7269C47.6425 69.1083 46.7333 68.4608 46.3927 66.3197C46.4173 65.2068 46.8867 64.1477 47.7003 63.3694C48.5139 62.591 49.6069 62.1555 50.745 62.1562C51.883 62.1568 52.9755 62.5936 53.7882 63.3729C54.6009 64.1521 55.069 65.2118 55.0922 66.3247C55.0954 66.3786 55.0954 66.4327 55.0922 66.4866C55.0634 67.924 53.8941 69.1551 53.1753 70.82L62.5329 71L63 47.7517L53.6769 47.5729C54.4028 45.9555 55.5324 44.7456 55.5606 43.3307Z" fill="black"/>
</svg>
