<svg width="60" height="45" viewBox="0 0 60 45" fill="none" xmlns="http://www.w3.org/2000/svg">
<path fill-rule="evenodd" clip-rule="evenodd" d="M19.147 0C24.154 0 28.448 2.85398 30.604 6.97498C33.25 5.79298 36.197 5.13397 39.302 5.13397C50.701 5.13397 60 14.027 60 25.067C60 36.107 50.7 45 39.302 45H15.116C6.80003 45 0 38.51 0 30.433C0 25.181 2.88099 20.597 7.17499 18.037C6.54699 16.5 6.20203 14.818 6.20203 13.059C6.20203 5.92002 11.924 0 19.147 0ZM10.388 13.059C10.388 8.03302 14.383 4.091 19.147 4.091C22.54 4.091 25.534 6.08 26.985 9.047C24.365 10.918 22.218 13.372 20.753 16.216C20.652 16.41 20.555 16.606 20.462 16.804C20.275 16.736 20.087 16.672 19.897 16.611C18.392 16.128 16.784 15.867 15.116 15.867C13.699 15.867 12.324 16.055 11.019 16.409C10.612 15.377 10.388 14.247 10.388 13.059Z" fill="url(#paint0_linear_2_342)"/>
<defs>
<linearGradient id="paint0_linear_2_342" x1="-5.4034e-07" y1="-0.208" x2="22.593" y2="59.053" gradientUnits="userSpaceOnUse">
<stop stop-color="#09C6F9"/>
<stop offset="1" stop-color="#045DE9"/>
</linearGradient>
</defs>
</svg>
