<svg width="48" height="48" viewBox="0 0 48 48" fill="none" xmlns="http://www.w3.org/2000/svg">
<path fill-rule="evenodd" clip-rule="evenodd" d="M16.079 0.917006C21.289 -0.305994 26.711 -0.305994 31.921 0.917006C39.444 2.68101 45.319 8.55599 47.083 16.079C48.306 21.289 48.306 26.711 47.083 31.921C45.319 39.444 39.444 45.319 31.921 47.083C26.711 48.306 21.289 48.306 16.079 47.083C8.55599 45.319 2.68101 39.444 0.917006 31.921C-0.305994 26.711 -0.305994 21.289 0.917006 16.079C2.68101 8.55599 8.55599 2.68101 16.079 0.917006ZM27.973 18.7C28.807 18.366 29.634 19.193 29.301 20.027L27.22 25.229C26.857 26.137 26.137 26.856 25.229 27.22L20.027 29.3C19.194 29.634 18.366 28.807 18.7 27.973L20.781 22.771C21.144 21.863 21.863 21.144 22.772 20.78L27.973 18.7ZM32.145 21.165C33.479 17.83 30.17 14.522 26.836 15.855L21.634 17.936C19.947 18.611 18.611 19.947 17.936 21.634L15.856 26.835C14.522 30.17 17.831 33.478 21.165 32.145L26.367 30.064C28.053 29.389 29.39 28.053 30.064 26.366L32.145 21.165Z" fill="url(#paint0_linear_2_338)"/>
<defs>
<linearGradient id="paint0_linear_2_338" x1="6.62744e-06" y1="-0.221995" x2="29.245" y2="57.311" gradientUnits="userSpaceOnUse">
<stop stop-color="#09C6F9"/>
<stop offset="1" stop-color="#045DE9"/>
</linearGradient>
</defs>
</svg>
