<svg width="669" height="462" viewBox="0 0 669 462" fill="none" xmlns="http://www.w3.org/2000/svg">
<path d="M578.225 190.99C562.511 212.582 536.093 225.409 508.491 225.409C463.642 225.409 423.76 189.894 423.76 143.42C423.76 105.084 443.976 77.5904 471.8 64.9344C479.451 61.4703 487.535 59.1342 495.81 57.9941C500.015 57.4066 504.253 57.1128 508.491 57.1139C519.333 57.1139 530.069 59.3315 540.087 63.6397C569.771 76.3648 591.371 106.351 592.872 141.262C593.707 160.599 588.053 177.504 578.225 190.99Z" fill="#657285"/>
<path d="M461.782 148.648C461.782 148.648 464.952 156.244 461.782 160.416C458.623 164.59 458.337 172.483 464.667 177.695C470.986 182.907 473.713 183.356 472.276 188.569C470.838 193.781 469.338 200.15 471.705 202.831C474.072 205.512 475.044 211.881 480.328 212.349C485.612 212.819 479.905 207.991 483.35 203.52C486.806 199.051 500.163 198.16 498.874 189.334C497.585 180.508 509.875 179.724 511.597 173.914C513.33 168.104 505.997 164.533 499.846 164.978C493.685 165.424 497.469 155.482 490.79 154.028C484.101 152.574 480.973 146.992 477.094 147.662C473.216 148.331 468.905 142.632 464.477 144.422C460.06 146.211 461.782 148.648 461.782 148.648Z" fill="#B8C1C9"/>
<path d="M450.57 87.8709C450.57 87.8709 445.973 91.5937 444.695 97.5528C443.416 103.511 436.927 107.235 435.923 115.448C434.92 123.66 439.485 123.861 437.868 128.332C436.251 132.801 438.259 135.036 443.183 137.272C448.108 139.507 448.541 142.94 451.447 144.072C454.364 145.203 453.603 148.218 454.575 148.553C455.547 148.888 455.114 146.268 456.129 142.842C457.133 139.415 457.988 137.998 454.332 138.148C450.665 138.295 451.806 135.242 453.244 133.308C454.681 131.374 451.236 131.073 450.084 131.371C448.932 131.667 449.228 137.181 446.85 134.572C444.473 131.964 443.331 128.986 445.265 125.559C447.21 122.134 451.373 124.966 454.332 120.869C457.28 116.772 461.444 118.41 461.677 121.688C461.909 124.966 467.785 125.039 468.788 120.721C469.803 116.403 469.37 108.876 475.404 107.65C481.448 106.424 493.315 100.164 485.76 97.5945C478.215 95.0249 481.226 89.66 477.348 89.9801C473.47 90.2991 474.981 96.3492 470.659 94.5481C466.347 92.7481 463.219 87.9575 469.264 86.6179C475.309 85.2772 477.781 78.3523 473.142 78.7974C468.503 79.2425 467.753 74.5517 464.952 75.1118C462.141 75.672 459.235 82.7263 456.329 84.4934C453.413 86.2594 450.57 87.8709 450.57 87.8709Z" fill="#B8C1C9"/>
<path d="M489.458 74.0912C489.458 74.0912 495.429 72.3778 498.018 74.0912C500.607 75.8046 504.633 80.6445 501.252 82.4336C497.87 84.2226 494.341 84.8168 496 88.1669C497.648 91.5181 491.255 92.6373 489.458 88.1669C487.662 83.6975 487.662 82.0751 485.792 79.9736C483.911 77.8721 484.714 73.4214 489.458 74.0912Z" fill="#B8C1C9"/>
<path d="M578.225 190.99C553.55 184.281 574.02 173.754 565.365 161.639C560.44 154.74 569.211 146.432 563.6 145.289C560.345 144.627 552.853 153.244 548.541 145.289C544.219 137.336 536.505 137.295 534.254 142.107C532.014 146.92 522.545 150.254 516.332 146.764C510.129 143.272 513.721 138.616 508.343 134.961C502.974 131.305 502.573 125.487 508.343 120.999C514.123 116.51 511.471 110.026 520.136 112.021C528.801 114.016 527.121 93.3192 527.121 93.3192C526.984 89.6983 530.365 89.0779 528.442 85.7036C526.519 82.3305 521.098 85.0799 518.213 77.5981C515.328 70.1163 522.788 65.6272 528.801 66.3584C530.555 66.5722 534.814 65.3005 540.098 63.6364C569.793 76.3604 591.392 106.348 592.893 141.258C593.707 160.599 588.053 177.504 578.225 190.99Z" fill="#B8C1C9"/>
<path d="M463.547 131.553C463.547 131.553 468.524 128.678 471.166 130.963C473.819 133.247 474.96 134.77 478.859 133.905C482.769 133.041 485.422 134.667 482.907 135.863C480.391 137.058 474.453 139.13 471.747 136.647C469.031 134.165 461.211 132.554 463.547 131.553Z" fill="#B8C1C9"/>
<path d="M483.594 140.831C483.594 140.831 487.123 141.482 487.947 139.978C488.761 138.474 487.123 139.914 485.77 139.13C484.418 138.345 481.829 139.13 483.594 140.831Z" fill="#B8C1C9"/>
<path d="M356.361 444.37C509.928 444.37 634.423 431.385 634.423 415.369C634.423 399.352 509.928 386.368 356.361 386.368C202.792 386.368 78.2988 399.352 78.2988 415.369C78.2988 431.385 202.792 444.37 356.361 444.37Z" fill="#EAEAEA"/>
<g opacity="0.6">
<path d="M494.848 280.293C526.656 246.601 571.293 206.81 590.716 224.648C614.123 246.156 557.281 273.215 514.535 300.925C499.202 310.867 474.569 301.767 494.848 280.293Z" fill="#D5D6DA"/>
</g>
<path d="M455.537 294.301C455.537 294.301 617.906 229.194 639.337 281.233C660.768 333.273 517.906 296.748 471.42 317.442L455.537 294.301Z" fill="#B8C1C9"/>
<path d="M464.318 307.311C496.158 292.416 535.438 287.702 562.786 286.369C592.428 284.927 614.799 287.04 615.021 287.059L615.148 285.62C614.937 285.597 592.46 283.476 562.723 284.922C535.258 286.26 495.788 291.014 463.737 305.989L464.318 307.311Z" fill="white"/>
<path d="M567.108 401.506C546.734 392.056 530.09 421.861 513.679 401.483C499.815 384.239 499.54 381.532 490.082 382.122C486.838 382.34 483.646 383.035 480.592 384.185C476.925 385.541 470.733 386.927 464.921 383.942C429.425 365.708 420.611 284.785 472.254 283.221C475.985 283.107 479.969 284.995 484.206 287.284C507.286 299.707 506.757 314.472 541.007 301.61C575.256 288.749 571.673 341.874 586.468 351.175C601.252 360.477 616.564 365.499 616.564 388.971C616.564 412.444 587.482 410.971 567.108 401.506Z" fill="#D5D6DA"/>
<g opacity="0.5">
<path d="M457.407 325.902L457.46 324.379C458.105 324.405 523.232 327.943 615.983 395.197L615.138 396.442C522.746 329.443 458.041 325.928 457.407 325.902Z" fill="white"/>
<path d="M540.013 332.637C535.945 312.26 540.14 301.744 540.33 301.306L541.672 301.904C541.641 302.006 537.488 312.473 541.451 332.329L540.013 332.637Z" fill="white"/>
<path d="M532.711 347.448C533.715 338.691 540.341 330.055 551.881 322.441C557.312 318.891 563.082 315.903 569.074 313.52L569.571 314.951C569.243 315.073 536.473 327.516 534.169 347.631L532.711 347.448Z" fill="white"/>
<path d="M558.221 363.596C557.672 361.265 557.481 359.867 557.46 359.787L558.929 359.578C558.971 359.872 563.23 389.276 587.842 406.855L587.007 408.104C567.161 393.952 560.271 372.288 558.221 363.596Z" fill="white"/>
<path d="M549.926 400.958C548.943 390.418 551.881 382.88 554.512 378.41C557.386 373.544 560.461 371.206 560.588 371.107L561.444 372.352C561.328 372.44 549.566 381.532 551.373 400.821L549.926 400.958Z" fill="white"/>
</g>
<path d="M182.404 61.8244C182.404 61.8244 187.548 51.5746 200.552 52.8572C213.555 54.1408 212.008 64.4169 218.188 63.4534C224.369 62.4898 233.051 63.4534 234.91 69.8729C236.77 76.2925 245.129 72.7626 245.44 78.2185C245.753 83.6745 235.84 87.5321 224.379 82.7153C212.919 77.8984 207.349 86.4545 191.244 84.9045C175.139 83.3544 173.144 81.4283 163.613 82.3919C154.082 83.3544 154.31 76.5928 158.645 72.1114C162.981 67.63 180.544 68.0301 182.404 61.8244Z" fill="#EAEAEA"/>
<g opacity="0.6">
<path d="M247.612 95.5533C247.612 95.5533 250.288 90.2234 257.055 90.89C263.824 91.5565 263.019 96.905 266.241 96.4029C269.463 95.8997 273.958 96.4029 274.942 99.7453C275.927 103.089 280.262 101.269 280.424 104.09C280.586 106.911 275.427 108.933 269.463 106.428C263.5 103.922 260.597 108.377 252.216 107.57C243.835 106.762 242.799 105.761 237.839 106.26C232.879 106.759 232.992 103.241 235.267 100.903C237.541 98.5658 246.646 98.7938 247.612 95.5533Z" fill="#EAEAEA"/>
</g>
<path d="M169.243 129.962C166.27 133.56 164.279 133.651 162.919 132.444C161.56 131.237 161.339 129.185 164.312 125.59C169.732 119.035 174.817 118.051 174.817 118.051C174.817 118.051 174.743 123.306 169.243 129.962Z" fill="#D5D6DA"/>
<path d="M178.711 159.065C177.017 163.471 175.166 164.22 173.501 163.535C171.837 162.85 170.988 160.98 172.678 156.578C175.757 148.556 180.262 145.918 180.262 145.918C180.262 145.918 181.835 150.925 178.711 159.065Z" fill="#D5D6DA"/>
<path d="M202.095 235.255L201.257 235.472C201.224 235.339 197.891 221.849 187.246 204.153C177.425 187.822 159.193 164.464 128.09 145.899L128.524 145.137C159.785 163.794 178.127 187.282 187.989 203.707C198.722 221.522 202.095 235.118 202.095 235.255Z" fill="#D5D6DA"/>
<path d="M161.611 170.765L160.77 170.552C168.177 138.893 148.049 110.848 147.843 110.566L148.534 110.026C148.739 110.308 169.118 138.684 161.611 170.765Z" fill="#D5D6DA"/>
<path d="M144.712 161.422C139.512 163.202 133.945 163.503 128.594 162.293L128.813 161.429C128.913 161.456 138.801 164.094 148.075 158.924L148.486 159.713C147.275 160.387 146.013 160.959 144.712 161.422Z" fill="#D5D6DA"/>
<path d="M194.378 216.629C176.907 220.65 160.457 217.009 145.488 205.839C145.124 205.549 144.745 205.281 144.353 205.035C144.386 205.043 144.419 205.043 144.451 205.035V204.141C144.709 204.141 144.923 204.29 146.003 205.1C160.765 216.142 176.981 219.705 194.199 215.761L194.378 216.629Z" fill="#D5D6DA"/>
<path d="M167.556 215.99L166.693 216.05C165.902 203.901 153.322 190.114 153.193 189.977L153.821 189.357C156.202 192.042 158.391 194.904 160.369 197.92C163.426 202.541 167.145 209.456 167.556 215.99Z" fill="#D5D6DA"/>
<path d="M126.002 141.384C131.676 143.885 132.796 146.017 132.095 147.726C131.393 149.437 129.156 150.076 123.46 147.574C113.121 143.006 109.395 137.717 109.395 137.717C109.395 137.717 115.509 136.762 126.002 141.384Z" fill="#D5D6DA"/>
<path d="M129.875 158.757C136.015 159.369 137.702 161.041 137.529 162.899C137.356 164.757 135.395 166.067 129.254 165.454C118.069 164.339 112.974 160.451 112.974 160.451C112.974 160.451 118.526 157.614 129.875 158.757Z" fill="#D5D6DA"/>
<path d="M154.729 186.349C158.036 189.623 158.01 191.68 156.772 193.032C155.533 194.382 153.546 194.485 150.239 191.211C144.22 185.241 143.552 179.926 143.552 179.926C143.552 179.926 148.618 180.291 154.729 186.349Z" fill="#D5D6DA"/>
<path d="M148.593 144.906C151.028 148.915 150.521 150.91 149.004 151.9C147.486 152.89 145.535 152.502 143.095 148.473C138.657 141.167 139.259 135.843 139.259 135.843C139.259 135.843 144.088 137.492 148.593 144.906Z" fill="#D5D6DA"/>
<path d="M176.9 207.632C178.153 212.201 177.128 213.961 175.4 214.486C173.673 215.011 171.907 214.052 170.657 209.49C168.379 201.186 170.4 196.252 170.4 196.252C170.4 196.252 174.589 199.207 176.9 207.632Z" fill="#D5D6DA"/>
<path d="M148.931 203.768C152.836 206.236 153.244 208.253 152.311 209.841C151.378 211.429 149.46 211.981 145.554 209.513C138.437 205.017 136.688 199.995 136.688 199.995C136.688 199.995 141.714 199.211 148.931 203.768Z" fill="#D5D6DA"/>
<path d="M149.118 105.974C152.425 111.365 152.19 113.779 150.68 114.777C149.17 115.774 146.954 114.979 143.644 109.587C137.607 99.765 137.426 93.2161 137.426 93.2161C137.426 93.2161 142.997 96.0104 149.118 105.974Z" fill="#D5D6DA"/>
<path d="M268.6 352.428C268.6 352.428 180.467 201.929 141.957 228.242C103.446 254.554 222.572 315.53 246.888 360.184L268.6 352.428Z" fill="#D5D6DA"/>
<path d="M227.588 325.582C227.588 325.582 126.154 214.094 91.3506 245.828C56.5466 277.563 178.947 303.792 207.239 337.286L227.588 325.582Z" fill="#EAEAEA"/>
<path d="M216.259 332.234C197.112 308.735 168.677 290.219 148.192 278.823C125.984 266.473 108.091 259.604 107.911 259.535L108.322 258.392C108.502 258.461 126.473 265.36 148.739 277.754C169.316 289.199 197.888 307.802 217.152 331.438L216.259 332.234Z" fill="white"/>
<path d="M106.371 368.864C129.199 373.464 126.149 409.193 151.911 402.012C177.671 394.831 175.492 393.145 188.184 404.529C188.184 404.529 193.266 415.688 203.616 417.336C244.401 423.836 298.697 360.343 255.601 326.956C252.488 324.547 248.013 323.69 243.064 322.997C216.212 319.254 208.132 332.169 186.383 299.951C164.635 267.732 136.967 315.215 118.989 313.958C101.01 312.702 85.0746 307.485 71.4943 327.486C57.914 347.487 83.5381 364.284 106.371 368.864Z" fill="#B8C1C9"/>
<path d="M243.564 372.546L244.39 371.213C243.825 370.833 186.276 333.414 68.3706 333.14V334.728C185.832 334.998 242.997 372.169 243.564 372.546Z" fill="white"/>
<path d="M169.275 327.002C184.52 312.154 187.022 300.594 187.122 300.111L185.622 299.78C185.601 299.894 183.084 311.388 168.225 325.845L169.275 327.002Z" fill="white"/>
<path d="M166.931 344.155C171.135 336.082 170.488 324.599 165.058 310.947C162.478 304.546 159.296 298.425 155.559 292.671L154.31 293.58C154.519 293.889 175.253 324.844 165.586 343.404L166.931 344.155Z" fill="white"/>
<path d="M135.861 342.083C137.676 340.439 138.657 339.372 138.701 339.323L137.599 338.242C137.393 338.467 116.762 360.865 85.6294 360.58V362.164C110.688 362.395 129.089 348.213 135.861 342.083Z" fill="white"/>
<path d="M121.33 379.061C128.259 370.685 130.119 362.449 130.457 357.004C130.823 351.077 129.549 347.17 129.497 347.006L128.049 347.524C128.097 347.673 132.86 362.715 120.168 378.029L121.33 379.061Z" fill="white"/>
<path d="M411.555 372.81V324.151H316.838V372.81C316.838 385.454 308.716 395.703 298.701 395.703H294.883V401.986H433.514V395.703H429.699C419.681 395.703 411.555 385.454 411.555 372.81Z" fill="#00A3FE"/>
<path d="M432.732 401.986H295.658C294.854 401.986 294.084 401.655 293.515 401.065C292.947 400.476 292.626 399.677 292.626 398.844C292.626 398.011 292.947 397.212 293.515 396.623C294.084 396.034 294.854 395.703 295.658 395.703H432.732C433.546 395.703 434.307 396.034 434.877 396.623C435.448 397.212 435.765 398.011 435.765 398.844C435.765 399.677 435.448 400.476 434.877 401.065C434.307 401.655 433.546 401.986 432.732 401.986Z" fill="#016EB9"/>
<path d="M525.536 354.023L205.236 350.216C201.941 350.176 198.795 348.791 196.478 346.363C194.162 343.935 192.862 340.658 192.861 337.244V134.667C192.862 131.261 194.154 127.993 196.461 125.566C198.767 123.14 201.902 121.751 205.189 121.7L521.362 116.681C524.669 116.628 527.861 117.936 530.249 120.318C532.627 122.699 534 125.962 534.064 129.39L538.196 340.789C538.227 342.526 537.932 344.254 537.308 345.867C536.685 347.481 535.755 348.949 534.571 350.183C533.388 351.418 531.982 352.394 530.429 353.053C528.886 353.713 527.216 354.043 525.536 354.023Z" fill="#016EB9"/>
<path d="M514.694 137.089H211.986C208.279 137.089 205.273 140.203 205.273 144.045V306.892C205.273 310.733 208.279 313.848 211.986 313.848H514.694C518.392 313.848 521.404 310.733 521.404 306.892V144.045C521.404 140.203 518.392 137.089 514.694 137.089Z" fill="#EAEAEA"/>
<path d="M396.359 81.8471L400.332 81.7364C400.702 81.7265 401.051 81.6432 401.389 81.4908C401.717 81.3374 402.012 81.1192 402.266 80.8462C402.509 80.5744 402.71 80.2543 402.837 79.9035C402.964 79.5538 403.027 79.18 403.016 78.8051L402.89 73.7865C402.868 73.0301 402.562 72.3121 402.034 71.7903C401.495 71.2695 400.787 70.9878 400.057 71.0075L397.247 71.0876C396.655 71.1029 396.074 70.9209 395.587 70.5679C395.101 70.2161 394.742 69.7118 394.552 69.1308C394.478 68.9017 394.404 68.6737 394.319 68.4489C394.129 67.9085 394.108 67.322 394.245 66.7651C394.383 66.2093 394.689 65.7105 395.101 65.3345L397.025 63.5904C397.574 63.0905 397.912 62.3857 397.965 61.6282C398.007 60.8718 397.764 60.1263 397.289 59.5552L394.097 55.7819C393.854 55.4991 393.569 55.2678 393.242 55.1012C392.914 54.9346 392.565 54.8359 392.206 54.8107C391.846 54.7855 391.477 54.8348 391.139 54.9554C390.8 55.0749 390.483 55.2645 390.209 55.5112L388.275 57.2553C387.863 57.6346 387.345 57.8736 386.795 57.9415C386.246 58.0095 385.686 57.9032 385.2 57.6357C384.999 57.525 384.787 57.4153 384.576 57.3123C384.048 57.0448 383.615 56.6063 383.34 56.0615C383.065 55.5167 382.97 54.8951 383.065 54.2889L383.509 51.4069C383.625 50.6592 383.456 49.8941 383.023 49.2802C382.589 48.6663 381.945 48.253 381.226 48.1324L376.45 47.3333C375.731 47.2138 374.991 47.3957 374.4 47.8397C373.808 48.2837 373.406 48.9535 373.29 49.7011L372.656 53.7791C372.571 54.3141 372.339 54.8129 371.99 55.2174C371.642 55.6219 371.187 55.9146 370.68 56.0637C369.803 56.3235 368.947 56.648 368.112 57.0338C367.573 57.2893 366.96 57.3583 366.379 57.2301C365.798 57.1018 365.28 56.7839 364.878 56.3224L362.818 53.8778C362.575 53.5949 362.289 53.3637 361.962 53.197C361.645 53.0304 361.285 52.9317 360.926 52.9065C360.567 52.8813 360.208 52.9306 359.859 53.0512C359.521 53.1707 359.204 53.3604 358.929 53.6081L355.283 56.9122C354.734 57.412 354.395 58.1169 354.353 58.8733C354.3 59.6297 354.543 60.3741 355.029 60.9441L357.798 64.2339C358.157 64.6428 358.379 65.1471 358.464 65.6864C358.548 66.2269 358.474 66.7794 358.263 67.2803C358.157 67.5237 358.062 67.7715 357.967 68.0181C357.766 68.5355 357.418 68.9806 356.984 69.2985C356.541 69.6153 356.023 69.7918 355.484 69.8039L350.982 69.9266C350.253 69.9475 349.566 70.2676 349.059 70.819C348.552 71.3693 348.287 72.1038 348.309 72.8613L348.435 77.8798C348.456 78.6373 348.763 79.3543 349.291 79.8761C349.82 80.3968 350.528 80.6785 351.257 80.6588L355.125 80.5524C355.706 80.5371 356.266 80.7103 356.752 81.0469C357.227 81.3834 357.587 81.8679 357.788 82.4292V82.4676C357.978 83.0091 358.009 83.5978 357.872 84.1569C357.735 84.7159 357.439 85.218 357.016 85.5973L354.29 88.0726C354.015 88.3193 353.793 88.6207 353.635 88.9573C353.465 89.2938 353.37 89.66 353.349 90.0349C353.328 90.4098 353.37 90.7858 353.487 91.141C353.603 91.4972 353.793 91.8261 354.026 92.1079L357.217 95.8855C357.46 96.1672 357.745 96.3985 358.073 96.5651C358.4 96.7307 358.749 96.8293 359.119 96.8546C359.478 96.8787 359.838 96.8293 360.176 96.7088C360.525 96.5882 360.842 96.3985 361.116 96.1519L363.843 93.6766C364.255 93.2951 364.773 93.055 365.333 92.987C365.882 92.9191 366.442 93.0265 366.939 93.2962L366.971 93.3192C367.489 93.5965 367.901 94.0328 368.154 94.5678C368.418 95.1028 368.514 95.709 368.418 96.2999L367.806 100.248C367.753 100.619 367.763 100.998 367.848 101.363C367.932 101.73 368.08 102.075 368.292 102.378C368.503 102.683 368.778 102.942 369.084 103.138C369.391 103.335 369.739 103.467 370.088 103.526L374.865 104.322C375.594 104.442 376.333 104.26 376.925 103.816C377.517 103.372 377.908 102.702 378.035 101.954L378.743 97.3544C378.827 96.8052 379.06 96.2922 379.43 95.8811C379.789 95.4689 380.254 95.1773 380.782 95.0403C381.025 94.9756 381.279 94.9065 381.512 94.8309C382.019 94.6796 382.558 94.6829 383.054 94.8375C383.562 94.9931 384.005 95.2946 384.354 95.7057L387.133 98.9955C387.366 99.2783 387.662 99.5096 387.979 99.6752C388.306 99.8418 388.666 99.9405 389.025 99.9646C389.384 99.9898 389.744 99.9405 390.092 99.8199C390.43 99.6993 390.747 99.5096 391.022 99.2619L394.668 95.9578C394.943 95.7101 395.165 95.4097 395.323 95.0732C395.492 94.7366 395.577 94.3716 395.609 93.9967C395.63 93.6218 395.587 93.2468 395.461 92.8906C395.344 92.5354 395.165 92.2076 394.932 91.9248L392.861 89.4769C392.47 89.0132 392.238 88.4311 392.195 87.8172C392.143 87.2033 392.29 86.5916 392.607 86.0698C393.083 85.2695 393.506 84.4364 393.865 83.5759C394.076 83.0705 394.425 82.6386 394.869 82.3316C395.313 82.0258 395.83 81.857 396.359 81.8471ZM383.213 84.1887C378.986 88.0299 370.331 86.938 366.622 82.552C362.923 78.1649 364.403 70.7488 368.63 66.9416C372.867 63.1333 380.085 65.1591 383.784 69.5452C387.493 73.9312 387.451 80.3474 383.213 84.1854V84.1887Z" fill="#00A3FE"/>
<path d="M375.763 107.509C375.615 107.51 375.456 107.497 375.308 107.47L370.532 106.675C370.162 106.615 369.813 106.479 369.496 106.278C369.179 106.075 368.894 105.81 368.683 105.496C368.461 105.183 368.302 104.827 368.218 104.45C368.133 104.074 368.123 103.684 368.175 103.301L368.788 99.3539C368.883 98.7795 368.799 98.1908 368.545 97.6712C368.292 97.1516 367.89 96.7263 367.394 96.4555H367.351C366.876 96.1979 366.337 96.0959 365.798 96.1639C365.259 96.2319 364.752 96.4664 364.35 96.837L361.624 99.3112C361.338 99.5666 361.021 99.7617 360.662 99.8856C360.313 100.009 359.933 100.06 359.563 100.035C359.193 100.009 358.823 99.9086 358.496 99.7376C358.157 99.5655 357.862 99.3287 357.619 99.0371L354.427 95.2562C354.174 94.9657 353.983 94.6281 353.867 94.2619C353.751 93.8947 353.698 93.5077 353.719 93.1218C353.751 92.736 353.846 92.3589 354.015 92.0124C354.174 91.666 354.406 91.3569 354.691 91.1026L357.418 88.6284C357.819 88.2557 358.115 87.7656 358.242 87.223C358.369 86.6793 358.348 86.107 358.157 85.5819V85.5436C357.967 84.9999 357.619 84.5307 357.154 84.204C356.689 83.8773 356.139 83.7096 355.579 83.7238L351.722 83.8302C350.972 83.8499 350.242 83.5594 349.693 83.0211C349.143 82.484 348.826 81.744 348.805 80.9635L348.678 75.9449C348.657 75.1655 348.943 74.4102 349.46 73.8446C349.978 73.2778 350.686 72.9478 351.447 72.9259L355.938 72.8009C356.456 72.79 356.963 72.6201 357.386 72.312C357.819 72.0051 358.147 71.5732 358.348 71.0722C358.443 70.8212 358.538 70.5734 358.644 70.33C358.844 69.8455 358.918 69.3116 358.834 68.7909C358.76 68.2691 358.538 67.7824 358.2 67.3866L355.421 64.0968C354.924 63.5093 354.67 62.7419 354.723 61.9636C354.776 61.1841 355.125 60.4574 355.685 59.9432L359.331 56.6381C359.605 56.3827 359.933 56.1875 360.292 56.0636C360.641 55.9398 361.011 55.8893 361.391 55.9146C361.761 55.9409 362.12 56.0428 362.458 56.2138C362.797 56.3859 363.093 56.6249 363.336 56.9165L365.396 59.36C365.777 59.8095 366.294 60.1197 366.855 60.2436C367.425 60.3686 368.006 60.2995 368.535 60.0496C369.37 59.6637 370.226 59.337 371.103 59.075C371.599 58.9292 372.033 58.6431 372.371 58.2495C372.719 57.856 372.941 57.3715 373.026 56.8518L373.66 52.7738C373.776 52.0032 374.188 51.3137 374.801 50.8565C375.404 50.3994 376.164 50.213 376.915 50.3369L381.691 51.1328C382.431 51.2578 383.097 51.6842 383.541 52.3167C383.984 52.9503 384.164 53.7385 384.048 54.5103L383.593 57.3879C383.498 57.9766 383.593 58.5806 383.858 59.1101C384.122 59.6396 384.545 60.0649 385.062 60.3236C385.274 60.4267 385.485 60.5374 385.686 60.647C386.161 60.9035 386.7 61.0044 387.239 60.9364C387.768 60.8684 388.275 60.6349 388.676 60.2666L390.6 58.5225C391.17 58.0095 391.91 57.7507 392.66 57.8023C393.411 57.8549 394.108 58.2134 394.605 58.8009L397.796 62.5742C398.039 62.8647 398.229 63.2023 398.356 63.5685C398.472 63.9346 398.525 64.3216 398.494 64.7075C398.472 65.0933 398.377 65.4704 398.208 65.8168C398.039 66.1632 397.817 66.4735 397.532 66.7278L395.609 68.4752C395.207 68.8403 394.911 69.3248 394.774 69.863C394.647 70.4024 394.668 70.9713 394.848 71.4942C394.932 71.7233 395.006 71.9514 395.08 72.1794C395.26 72.7472 395.609 73.2394 396.084 73.5826C396.549 73.9257 397.12 74.1022 397.69 74.0835L400.512 74.0035C401.262 73.9838 401.991 74.2743 402.541 74.8114C403.08 75.3475 403.397 76.0875 403.418 76.8669L403.555 81.8854C403.577 82.6649 403.291 83.4202 402.773 83.9858C402.256 84.5526 401.548 84.8825 400.797 84.9045L396.813 85.0185C396.296 85.0349 395.809 85.2016 395.387 85.4975C394.964 85.7946 394.626 86.209 394.425 86.6935C394.055 87.5607 393.633 88.3993 393.157 89.2028C392.851 89.7082 392.703 90.3023 392.755 90.8976C392.798 91.4928 393.02 92.0574 393.4 92.508L395.471 94.9559C395.714 95.2464 395.905 95.5851 396.021 95.9512C396.137 96.3174 396.19 96.7043 396.169 97.0891C396.137 97.475 396.042 97.8521 395.883 98.1985C395.714 98.546 395.482 98.8552 395.207 99.1095L391.54 102.407C391.265 102.662 390.938 102.858 390.579 102.981C390.23 103.105 389.86 103.156 389.48 103.13C389.11 103.104 388.75 103.002 388.412 102.831C388.074 102.659 387.778 102.42 387.535 102.129L384.756 98.8398C384.428 98.4419 383.984 98.1503 383.498 98.0001C383.012 97.8499 382.494 97.8466 381.998 97.9902C381.755 98.067 381.501 98.1393 381.269 98.204C380.761 98.3355 380.307 98.6184 379.958 99.0174C379.599 99.4164 379.377 99.913 379.292 100.446L378.584 105.046C378.468 105.736 378.13 106.363 377.612 106.815C377.094 107.265 376.439 107.512 375.763 107.509ZM366.115 95.9348C366.569 95.9337 367.024 96.0488 367.425 96.2691L367.467 96.2889C367.985 96.5783 368.408 97.0299 368.672 97.5824C368.936 98.1338 369.031 98.7576 368.936 99.3649L368.323 103.314C368.207 104.037 368.376 104.778 368.788 105.374C369.2 105.97 369.824 106.372 370.521 106.493L375.298 107.284C375.995 107.4 376.714 107.226 377.285 106.797C377.866 106.37 378.246 105.723 378.362 105L379.081 100.401C379.166 99.833 379.409 99.3057 379.779 98.8815C380.148 98.4572 380.635 98.1568 381.173 98.0165C381.417 97.9519 381.67 97.8839 381.913 97.8072C382.431 97.6515 382.991 97.6537 383.509 97.8137C384.027 97.9727 384.492 98.284 384.851 98.7104L387.63 101.999C387.863 102.273 388.137 102.498 388.454 102.659C388.772 102.82 389.11 102.916 389.458 102.94C389.818 102.964 390.166 102.917 390.494 102.799C390.832 102.682 391.139 102.499 391.403 102.259L395.049 98.9538C395.577 98.4704 395.905 97.7863 395.957 97.0529C396 96.3196 395.767 95.5971 395.302 95.0435L393.231 92.5957C392.829 92.1177 392.586 91.518 392.534 90.8855C392.491 90.253 392.639 89.6216 392.967 89.0844C393.442 88.2875 393.865 87.4565 394.224 86.5982C394.446 86.084 394.795 85.6444 395.239 85.3287C395.693 85.0141 396.222 84.8376 396.761 84.8201L400.734 84.7061C401.442 84.6852 402.118 84.3739 402.604 83.8411C403.09 83.3084 403.355 82.5969 403.333 81.8624L403.207 76.8482C403.186 76.1127 402.89 75.4155 402.372 74.9101C401.865 74.4036 401.178 74.1296 400.47 74.1482L397.648 74.2282C397.035 74.2458 396.443 74.0594 395.936 73.6966C395.44 73.3337 395.07 72.8141 394.879 72.2145C394.806 71.9853 394.732 71.7606 394.647 71.537C394.457 70.9801 394.425 70.3761 394.573 69.8027C394.71 69.2294 395.017 68.7153 395.45 68.3272L397.373 66.5831C397.638 66.343 397.86 66.0514 398.008 65.7248C398.166 65.3981 398.261 65.0429 398.282 64.68C398.303 64.3161 398.261 63.951 398.145 63.6068C398.039 63.2615 397.859 62.9425 397.627 62.6696L394.436 58.8919C393.971 58.3416 393.305 58.0051 392.597 57.9557C391.889 57.9075 391.191 58.1509 390.663 58.6332L388.74 60.3773C388.307 60.7676 387.778 61.0142 387.207 61.0855C386.647 61.1567 386.066 61.0493 385.559 60.7764C385.358 60.6667 385.157 60.556 384.946 60.453C384.397 60.1789 383.942 59.7273 383.667 59.166C383.382 58.6047 383.287 57.9634 383.382 57.3386L383.837 54.4598C383.942 53.7363 383.773 52.9942 383.361 52.3989C382.949 51.8026 382.325 51.4003 381.628 51.2808L376.851 50.4816C376.154 50.3665 375.435 50.5408 374.865 50.9694C374.294 51.397 373.903 52.0427 373.787 52.7662L373.153 56.8442C373.058 57.3967 372.825 57.9119 372.466 58.3307C372.107 58.7483 371.631 59.0531 371.113 59.2076C370.247 59.4674 369.391 59.7908 368.566 60.1756C368.006 60.4387 367.383 60.51 366.791 60.3762C366.189 60.2436 365.65 59.9136 365.238 59.4368L363.177 56.9922C362.945 56.7181 362.67 56.4945 362.353 56.3322C362.036 56.1711 361.698 56.0757 361.338 56.0516C360.99 56.0275 360.641 56.0757 360.313 56.1919C359.975 56.3092 359.669 56.4934 359.404 56.7334L355.759 60.0386C355.23 60.522 354.903 61.2061 354.86 61.9395C354.808 62.6717 355.04 63.3942 355.505 63.9489L358.284 67.2376C358.644 67.6585 358.876 68.1748 358.961 68.7284C359.045 69.282 358.982 69.8499 358.76 70.364C358.665 70.6041 358.559 70.8508 358.464 71.0985C358.263 71.6346 357.904 72.095 357.449 72.4217C356.984 72.7494 356.446 72.9292 355.896 72.938L351.394 73.0629C351.046 73.0728 350.697 73.1539 350.38 73.3019C350.063 73.4499 349.767 73.6615 349.524 73.9257C349.291 74.1899 349.101 74.5012 348.974 74.841C348.848 75.1809 348.784 75.5437 348.795 75.9077L348.921 80.9251C348.943 81.6607 349.249 82.3579 349.756 82.8633C350.274 83.3697 350.961 83.6438 351.669 83.6252L355.537 83.5188C356.129 83.5013 356.71 83.6789 357.206 84.0253C357.693 84.3717 358.073 84.8694 358.274 85.4493V85.4789C358.475 86.038 358.506 86.6464 358.358 87.223C358.221 87.7996 357.914 88.3192 357.481 88.7117L354.744 91.187C354.48 91.426 354.269 91.7176 354.11 92.0442C353.952 92.3709 353.867 92.7261 353.846 93.09C353.814 93.4529 353.867 93.818 353.973 94.1633C354.089 94.5086 354.269 94.8265 354.501 95.1005L357.692 98.8771C357.925 99.1522 358.2 99.3759 358.517 99.537C358.834 99.6993 359.183 99.7946 359.531 99.8187C359.88 99.8429 360.229 99.7946 360.567 99.6773C360.894 99.56 361.201 99.377 361.465 99.1369L364.192 96.6616C364.72 96.1825 365.407 95.9227 366.115 95.9348Z" fill="#131F2D"/>
<g opacity="0.6">
<path d="M492.185 158.049H234.143C230.453 158.049 227.462 161.148 227.462 164.97V210.446C227.462 214.269 230.453 217.368 234.143 217.368H492.185C495.873 217.368 498.863 214.269 498.863 210.446V164.97C498.863 161.148 495.873 158.049 492.185 158.049Z" fill="#D5D6DA"/>
</g>
<g opacity="0.6">
<path d="M494.806 235.472H370.204C369.951 235.472 369.697 235.421 369.465 235.32C369.232 235.219 369.021 235.071 368.841 234.886C368.662 234.699 368.514 234.478 368.418 234.236C368.323 233.992 368.271 233.733 368.271 233.469V232.289C368.271 232.025 368.323 231.763 368.418 231.519C368.524 231.275 368.662 231.053 368.841 230.868C369.031 230.682 369.243 230.534 369.475 230.434C369.718 230.334 369.961 230.285 370.226 230.286L494.827 231.478C495.334 231.483 495.82 231.696 496.179 232.07C496.539 232.444 496.739 232.95 496.739 233.477C496.739 234.007 496.539 234.514 496.169 234.888C495.809 235.262 495.323 235.472 494.806 235.472Z" fill="#D5D6DA"/>
</g>
<path d="M485.485 185.378H401.875V182.092L485.485 182.861V185.378Z" fill="#657285"/>
<path d="M439.221 192.772H401.875V189.486L439.221 190.259V192.772Z" fill="#00A3FE"/>
<path d="M451.342 208.771H401.875V205.482L451.342 206.254V208.771Z" fill="#00A3FE"/>
<path d="M439.221 201.354H401.875V198.068L439.221 198.841V201.354Z" fill="#5C305D"/>
<path d="M466.453 201.354H444.568V198.068L466.453 198.841V201.354Z" fill="#657285"/>
<path d="M481.903 192.772H444.568V189.486L481.903 190.259V192.772Z" fill="#00A3FE"/>
<g opacity="0.6">
<path d="M494.996 246.982L370.067 248.505C369.835 248.508 369.602 248.463 369.38 248.372C369.169 248.282 368.968 248.147 368.81 247.977C368.64 247.806 368.503 247.603 368.419 247.38C368.323 247.156 368.281 246.916 368.281 246.674V245.151C368.281 244.666 368.471 244.202 368.799 243.858C369.127 243.515 369.581 243.323 370.046 243.323H494.975C495.44 243.323 495.894 243.515 496.222 243.858C496.549 244.2 496.739 244.665 496.739 245.151C496.739 245.632 496.56 246.095 496.232 246.438C495.905 246.78 495.461 246.976 494.996 246.982Z" fill="#D5D6DA"/>
</g>
<g opacity="0.6">
<path d="M296.768 287.199H228.396V282.981L295.655 283.94C296.218 283.949 296.756 284.187 297.151 284.602C297.548 285.019 297.768 285.58 297.767 286.164C297.767 286.438 297.662 286.703 297.475 286.897C297.287 287.091 297.033 287.199 296.768 287.199Z" fill="#D5D6DA"/>
</g>
<g opacity="0.6">
<path d="M318.138 297.506L229.52 298.733C229.374 298.735 229.228 298.709 229.091 298.652C228.955 298.596 228.832 298.512 228.726 298.406C228.621 298.3 228.539 298.172 228.482 298.032C228.425 297.893 228.396 297.742 228.396 297.59V295.725C228.396 295.422 228.512 295.13 228.718 294.917C228.926 294.703 229.206 294.582 229.498 294.582H318.116C318.408 294.582 318.689 294.703 318.895 294.917C319.102 295.13 319.218 295.422 319.218 295.725V296.364C319.218 296.663 319.105 296.95 318.903 297.164C318.701 297.378 318.427 297.5 318.138 297.506Z" fill="#D5D6DA"/>
</g>
<g opacity="0.6">
<path d="M388.75 297.518L326.754 298.721C326.565 298.724 326.377 298.689 326.2 298.616C326.025 298.543 325.864 298.436 325.729 298.297C325.595 298.16 325.487 297.996 325.414 297.815C325.34 297.634 325.303 297.44 325.303 297.244V296.045C325.303 295.652 325.453 295.276 325.721 295C325.988 294.723 326.35 294.567 326.729 294.567H388.75C389.131 294.568 389.49 294.724 389.754 295.001C390.018 295.278 390.177 295.653 390.177 296.045C390.177 296.435 390.018 296.81 389.754 297.086C389.49 297.362 389.131 297.518 388.75 297.518Z" fill="#D5D6DA"/>
</g>
<g opacity="0.6">
<path d="M494.996 263.647L370.067 265.17C369.835 265.173 369.602 265.128 369.38 265.037C369.169 264.947 368.968 264.812 368.81 264.642C368.64 264.471 368.503 264.268 368.419 264.045C368.323 263.821 368.281 263.581 368.281 263.339V261.816C368.281 261.331 368.471 260.867 368.799 260.523C369.127 260.18 369.581 259.988 370.046 259.988H494.975C495.44 259.988 495.894 260.18 496.222 260.523C496.549 260.865 496.739 261.33 496.739 261.816C496.739 262.297 496.56 262.76 496.232 263.103C495.905 263.445 495.461 263.641 494.996 263.647Z" fill="#D5D6DA"/>
</g>
<path d="M284.205 225.466H233.342C230.094 225.466 227.462 228.193 227.462 231.558V264.519C227.462 267.884 230.094 270.611 233.342 270.611H284.205C287.453 270.611 290.084 267.884 290.084 264.519V231.558C290.084 228.193 287.453 225.466 284.205 225.466Z" fill="#D5D6DA"/>
<g opacity="0.6">
<path d="M349.524 225.466H303.492C300.73 225.466 298.491 227.787 298.491 230.648V265.429C298.491 268.29 300.73 270.611 303.492 270.611H349.524C352.282 270.611 354.522 268.29 354.522 265.429V230.648C354.522 227.787 352.282 225.466 349.524 225.466Z" fill="#D5D6DA"/>
</g>
<path d="M285.936 295.694C285.601 314.491 284.293 340.222 280.17 362.785C273.304 400.433 231.019 426.261 223.218 430.742C222.838 430.96 222.413 431.083 221.978 431.101C221.544 431.117 221.112 431.03 220.717 430.842C154.578 399.358 155.61 351.514 155.61 351.514V295.321C155.61 294.563 155.898 293.834 156.411 293.293C156.925 292.753 157.624 292.444 158.355 292.432C168.427 292.259 203.55 290.295 218.901 271.612C219.152 271.31 219.46 271.066 219.807 270.895C220.153 270.723 220.531 270.627 220.915 270.615C221.299 270.602 221.682 270.671 222.038 270.82C222.395 270.968 222.718 271.191 222.987 271.475C229.601 278.439 251.162 297.746 285.818 295.702L285.936 295.694Z" fill="#00A3FE"/>
<path d="M221.819 421.593C221.776 421.592 221.733 421.583 221.693 421.567C208.209 415.269 196.759 407.67 187.654 398.966C180.368 392.002 174.563 384.319 170.385 376.121C163.287 362.172 163.434 351.439 163.434 351.331V304.234C163.425 302.949 163.903 301.711 164.764 300.786C165.625 299.861 166.801 299.322 168.041 299.284C172.987 299.109 182.778 298.431 192.751 295.828C204.648 292.72 213.419 287.832 218.839 281.306C219.091 280.997 219.403 280.747 219.755 280.57C220.107 280.394 220.49 280.296 220.881 280.282C221.27 280.269 221.659 280.34 222.022 280.491C222.383 280.643 222.711 280.871 222.983 281.161C226.658 285.075 236.538 294.586 249.192 298.336C257.057 300.612 265.152 301.928 273.311 302.261C274.521 302.314 275.662 302.856 276.492 303.77C277.32 304.685 277.771 305.9 277.745 307.154C277.217 329.115 275.68 346.812 273.043 361.257C271.521 369.584 267.898 377.941 262.24 386.089C257.724 392.597 251.923 398.989 244.992 405.088C237.869 411.362 230.154 416.875 221.962 421.544C221.918 421.572 221.87 421.59 221.819 421.593ZM220.977 280.921H220.904C220.596 280.932 220.294 281.009 220.016 281.147C219.739 281.284 219.492 281.479 219.29 281.72C213.809 288.354 204.935 293.306 192.913 296.444C182.885 299.064 173.049 299.745 168.074 299.92C166.994 299.954 165.97 300.423 165.218 301.229C164.468 302.033 164.05 303.111 164.054 304.23V351.351C164.054 351.465 163.911 362.064 170.951 375.881C175.084 383.996 180.85 391.614 188.089 398.524C197.109 407.14 208.451 414.679 221.807 420.928C229.914 416.291 237.553 410.827 244.611 404.616C255.428 395.098 269.041 379.819 272.448 361.151C275.078 346.743 276.61 329.078 277.14 307.151C277.157 306.061 276.765 305.009 276.045 304.214C275.325 303.42 274.335 302.948 273.285 302.897C265.081 302.561 256.943 301.235 249.034 298.95C236.24 295.141 226.253 285.558 222.558 281.606C222.353 281.387 222.106 281.214 221.835 281.095C221.563 280.978 221.272 280.919 220.977 280.921Z" fill="#131F2D"/>
<path d="M235.997 374.545H194.144C192.281 374.544 190.495 373.775 189.178 372.411C187.86 371.046 187.12 369.195 187.118 367.266V340.507C187.12 338.576 187.859 336.725 189.177 335.359C190.494 333.994 192.28 333.226 194.144 333.223H196.502C197.512 328.91 199.891 325.072 203.259 322.328C206.627 319.583 210.787 318.091 215.071 318.091C219.355 318.091 223.515 319.583 226.882 322.328C230.25 325.072 232.629 328.91 233.639 333.223H235.997C237.861 333.226 239.648 333.993 240.966 335.359C242.284 336.725 243.025 338.576 243.027 340.507V367.266C243.024 369.196 242.282 371.047 240.965 372.412C239.647 373.775 237.86 374.544 235.997 374.545ZM194.144 333.848C192.44 333.851 190.808 334.553 189.604 335.802C188.399 337.05 187.723 338.742 187.721 340.507V367.266C187.723 369.03 188.4 370.721 189.604 371.97C190.808 373.217 192.44 373.919 194.144 373.921H235.997C237.701 373.919 239.333 373.217 240.538 371.97C241.743 370.722 242.421 369.031 242.424 367.266V340.507C242.422 338.742 241.745 337.049 240.54 335.801C239.335 334.552 237.702 333.849 235.997 333.848H233.4C233.332 333.848 233.266 333.824 233.213 333.781C233.159 333.738 233.122 333.676 233.106 333.608C232.167 329.38 229.871 325.608 226.595 322.907C223.32 320.206 219.257 318.735 215.071 318.735C210.884 318.735 206.822 320.206 203.546 322.907C200.27 325.608 197.974 329.38 197.035 333.608C197.02 333.677 196.982 333.739 196.929 333.781C196.875 333.825 196.809 333.848 196.741 333.848H194.144ZM228.594 333.848H201.551C201.504 333.848 201.458 333.837 201.415 333.815C201.373 333.794 201.336 333.762 201.309 333.722C201.28 333.683 201.261 333.638 201.252 333.59C201.245 333.541 201.247 333.491 201.261 333.444C202.179 330.393 204.014 327.726 206.498 325.833C208.983 323.938 211.986 322.917 215.071 322.917C218.155 322.917 221.159 323.938 223.643 325.833C226.127 327.726 227.963 330.393 228.88 333.444C228.895 333.491 228.899 333.54 228.892 333.589C228.883 333.637 228.865 333.683 228.837 333.722C228.809 333.762 228.772 333.794 228.73 333.815C228.688 333.837 228.641 333.848 228.594 333.848ZM201.966 333.223H228.183C227.243 330.396 225.475 327.944 223.126 326.208C220.777 324.471 217.964 323.537 215.078 323.537C212.192 323.537 209.379 324.471 207.03 326.208C204.681 327.944 202.913 330.396 201.973 333.223H201.966Z" fill="#131F2D"/>
<path d="M240.073 329.302H200.644C196.66 329.302 193.43 332.648 193.43 336.775V362.526C193.43 366.653 196.66 369.999 200.644 369.999H240.073C244.056 369.999 247.286 366.653 247.286 362.526V336.775C247.286 332.648 244.056 329.302 240.073 329.302Z" fill="#131F2D"/>
<path d="M220.36 353.16C216.639 353.16 213.001 352.017 209.907 349.875C206.812 347.733 204.401 344.689 202.976 341.127C201.552 337.565 201.18 333.644 201.904 329.864C202.63 326.082 204.423 322.608 207.054 319.881C209.685 317.155 213.037 315.298 216.687 314.546C220.336 313.794 224.119 314.18 227.557 315.656C230.995 317.132 233.933 319.631 235.999 322.838C238.066 326.043 239.17 329.813 239.169 333.669C239.163 338.836 237.18 343.79 233.653 347.444C230.127 351.098 225.346 353.153 220.36 353.16ZM220.36 318.991C217.558 318.991 214.819 319.851 212.49 321.463C210.16 323.076 208.343 325.368 207.271 328.049C206.198 330.732 205.917 333.683 206.463 336.53C207.01 339.378 208.358 341.993 210.339 344.047C212.32 346.1 214.843 347.498 217.592 348.064C220.339 348.631 223.187 348.341 225.776 347.23C228.364 346.118 230.577 344.237 232.134 341.823C233.69 339.41 234.521 336.572 234.521 333.669C234.517 329.778 233.024 326.048 230.369 323.296C227.715 320.544 224.115 318.997 220.36 318.991Z" fill="#131F2D"/>
<path d="M220.36 351.24C219.84 351.239 219.342 351.024 218.974 350.644C218.606 350.262 218.399 349.746 218.398 349.207V339.349C218.399 338.811 218.606 338.295 218.974 337.913C219.342 337.532 219.84 337.318 220.36 337.317C220.88 337.319 221.377 337.534 221.744 337.914C222.111 338.296 222.318 338.811 222.319 339.349V349.207C222.318 349.745 222.111 350.261 221.744 350.643C221.377 351.023 220.88 351.238 220.36 351.24Z" fill="#00A3FE"/>
<path d="M220.36 360.177C223.28 360.177 225.648 357.723 225.648 354.698C225.648 351.671 223.28 349.219 220.36 349.219C217.44 349.219 215.073 351.671 215.073 354.698C215.073 357.723 217.44 360.177 220.36 360.177Z" fill="#00A3FE"/>
<path d="M316.525 212.06C316.408 212.06 316.294 212.031 316.191 211.977L308.651 208.071C308.562 208.026 308.482 207.963 308.417 207.888C308.352 207.811 308.302 207.721 308.27 207.625C308.24 207.527 308.227 207.425 308.236 207.323C308.243 207.221 308.27 207.121 308.316 207.03C308.359 206.938 308.419 206.856 308.493 206.788C308.567 206.721 308.653 206.67 308.747 206.637C308.84 206.605 308.939 206.592 309.038 206.601C309.136 206.608 309.232 206.637 309.32 206.684L316.87 210.583C317.037 210.649 317.175 210.775 317.259 210.937C317.343 211.101 317.366 211.29 317.325 211.47C317.285 211.65 317.182 211.808 317.036 211.915C316.891 212.023 316.713 212.071 316.536 212.052L316.525 212.06Z" fill="#131F2D"/>
<path d="M305.81 221.438C305.612 221.445 305.419 221.369 305.275 221.229C305.13 221.089 305.045 220.893 305.039 220.688C305.033 220.482 305.106 220.283 305.241 220.133C305.377 219.984 305.564 219.895 305.763 219.888L314.14 219.302C314.338 219.289 314.533 219.355 314.683 219.491C314.832 219.626 314.924 219.817 314.937 220.022C314.951 220.227 314.886 220.429 314.756 220.584C314.625 220.739 314.441 220.834 314.243 220.849L305.862 221.434L305.81 221.438Z" fill="#131F2D"/>
<path d="M310.55 234.452C310.381 234.462 310.214 234.411 310.076 234.308C309.939 234.205 309.841 234.056 309.797 233.886C309.754 233.716 309.769 233.536 309.84 233.376C309.91 233.216 310.031 233.087 310.183 233.009L317.469 228.574C317.554 228.522 317.647 228.488 317.744 228.474C317.841 228.46 317.94 228.465 318.035 228.491C318.13 228.517 318.219 228.562 318.297 228.622C318.375 228.683 318.441 228.76 318.49 228.848C318.54 228.934 318.573 229.032 318.586 229.132C318.6 229.233 318.595 229.336 318.57 229.433C318.545 229.532 318.502 229.624 318.444 229.705C318.385 229.786 318.311 229.854 318.226 229.906L310.943 234.341C310.825 234.414 310.688 234.453 310.55 234.452Z" fill="#131F2D"/>
<path d="M341.033 212.06C340.893 212.062 340.757 212.022 340.638 211.946C340.519 211.869 340.424 211.761 340.364 211.63C340.319 211.539 340.291 211.441 340.283 211.339C340.275 211.237 340.287 211.134 340.318 211.037C340.349 210.94 340.399 210.851 340.464 210.774C340.53 210.697 340.609 210.635 340.699 210.591L348.245 206.692C348.34 206.647 348.435 206.619 348.53 206.613C348.626 206.606 348.731 206.619 348.816 206.651C348.911 206.684 348.995 206.734 349.069 206.801C349.143 206.868 349.207 206.949 349.249 207.04C349.291 207.131 349.323 207.23 349.323 207.332C349.334 207.433 349.323 207.535 349.291 207.631C349.26 207.728 349.207 207.816 349.143 207.893C349.08 207.97 349.006 208.032 348.911 208.077L341.352 211.969C341.254 212.024 341.145 212.056 341.033 212.06Z" fill="#131F2D"/>
<path d="M351.743 221.438H351.69L343.314 220.852C343.117 220.838 342.932 220.742 342.802 220.588C342.672 220.433 342.606 220.23 342.62 220.025C342.634 219.82 342.725 219.629 342.875 219.495C343.024 219.36 343.219 219.292 343.417 219.306L351.796 219.893C351.997 219.899 352.176 219.987 352.314 220.137C352.451 220.287 352.525 220.487 352.514 220.692C352.514 220.898 352.43 221.092 352.282 221.232C352.134 221.374 351.944 221.448 351.743 221.442V221.438Z" fill="#131F2D"/>
<path d="M347.007 234.452C346.878 234.449 346.751 234.411 346.64 234.341L339.357 229.906C339.272 229.854 339.199 229.786 339.14 229.705C339.081 229.624 339.038 229.532 339.013 229.433C338.989 229.336 338.983 229.233 338.997 229.132C339.01 229.032 339.043 228.934 339.093 228.848C339.142 228.76 339.208 228.683 339.286 228.622C339.364 228.562 339.454 228.517 339.548 228.491C339.643 228.465 339.743 228.46 339.839 228.474C339.936 228.488 340.03 228.522 340.115 228.574L347.386 233.001C347.537 233.079 347.659 233.209 347.729 233.369C347.801 233.529 347.812 233.708 347.77 233.878C347.727 234.048 347.629 234.197 347.492 234.3C347.354 234.403 347.187 234.454 347.018 234.444L347.007 234.452Z" fill="#131F2D"/>
<path d="M343.777 217.011C343.777 227.062 337.344 235.286 329.26 235.78C328.995 235.796 328.731 235.803 328.466 235.803C320.015 235.803 313.156 227.389 313.156 217.011C313.121 212.831 314.294 208.735 316.525 205.252C319.328 200.962 323.634 198.212 328.466 198.212C329.788 198.215 331.103 198.422 332.365 198.83C335.672 199.963 338.507 202.228 340.408 205.252C342.638 208.735 343.812 212.831 343.777 217.011Z" fill="#657285"/>
<path d="M343.777 217.009C343.777 227.062 337.344 235.286 329.26 235.78C328.214 232.676 327.466 229.473 327.026 226.216C326.1 219.462 326.493 213.058 327.911 207.849C328.915 204.141 330.44 201.034 332.364 198.83C335.671 199.963 338.507 202.228 340.408 205.252C342.638 208.735 343.812 212.831 343.777 217.009Z" fill="#657285"/>
<path d="M328.466 212.297C335.061 212.297 340.408 209.144 340.408 205.257C340.408 201.368 335.061 198.217 328.466 198.217C321.871 198.217 316.525 201.368 316.525 205.257C316.525 209.144 321.871 212.297 328.466 212.297Z" fill="#131F2D"/>
<path d="M325.115 200.657C324.921 200.657 324.734 200.577 324.596 200.434C324.458 200.291 324.381 200.098 324.381 199.896C324.241 194.013 319.005 191.629 318.95 191.606C318.767 191.526 318.623 191.373 318.548 191.182C318.474 190.991 318.477 190.778 318.555 190.588C318.633 190.399 318.78 190.249 318.965 190.173C319.149 190.096 319.355 190.098 319.538 190.179C319.791 190.293 325.714 192.989 325.873 199.858C325.877 199.96 325.86 200.063 325.825 200.158C325.79 200.255 325.736 200.342 325.668 200.416C325.599 200.49 325.517 200.548 325.426 200.589C325.335 200.628 325.237 200.649 325.137 200.649L325.115 200.657Z" fill="#131F2D"/>
<path d="M331.296 202.649C331.109 202.649 330.928 202.575 330.792 202.444C330.656 202.311 330.573 202.13 330.56 201.936C329.925 193.644 335.381 190.362 335.613 190.225C335.785 190.124 335.99 190.098 336.18 190.153C336.371 190.208 336.533 190.339 336.63 190.518C336.729 190.697 336.753 190.908 336.7 191.107C336.647 191.304 336.52 191.472 336.348 191.572C336.142 191.695 331.494 194.547 332.048 201.815C332.058 201.917 332.047 202.018 332.018 202.115C331.988 202.213 331.939 202.302 331.876 202.379C331.813 202.457 331.734 202.519 331.647 202.566C331.559 202.612 331.463 202.638 331.366 202.644L331.296 202.649Z" fill="#131F2D"/>
<g opacity="0.4">
<path d="M373.417 264.873C397.701 239.703 397.701 198.891 373.417 173.719C349.122 148.549 309.738 148.549 285.447 173.719C261.154 198.891 261.154 239.703 285.446 264.873C309.738 290.045 349.122 290.045 373.417 264.873Z" fill="#00A3FE"/>
</g>
<path d="M400.142 274.227C400.142 274.227 389.152 274.475 386.14 269.484C383.118 264.492 388.232 260.148 388.232 260.148L404.591 269.312L400.142 274.227Z" fill="#FF7955"/>
<path d="M383.012 248.122L378.225 256.126L499.561 333.991L504.348 325.986L383.012 248.122Z" fill="#131F2D"/>
<path d="M505.521 329.302L502.921 333.65C502.425 334.48 501.622 335.072 500.713 335.295C499.794 335.519 498.832 335.356 498.029 334.842L434.73 294.216C433.926 293.702 433.356 292.879 433.144 291.927C432.923 290.977 433.081 289.976 433.578 289.145L436.177 284.797C436.674 283.967 437.467 283.375 438.386 283.152C439.305 282.928 440.267 283.092 441.07 283.606L504.369 324.23C505.172 324.745 505.743 325.568 505.954 326.52C506.176 327.47 506.018 328.471 505.521 329.302Z" fill="#131F2D"/>
<path d="M274.071 183.764C267.29 195.109 263.906 208.285 264.351 221.622C264.795 234.96 269.045 247.862 276.566 258.697C284.086 269.531 294.538 277.812 306.6 282.491C318.661 287.171 331.792 288.038 344.33 284.985C356.868 281.932 368.249 275.095 377.042 265.338C385.823 255.582 391.625 243.344 393.696 230.173C395.778 217.002 394.034 203.489 388.697 191.341C383.361 179.195 374.674 168.96 363.726 161.931C356.456 157.265 348.372 154.128 339.929 152.7C331.489 151.272 322.86 151.58 314.535 153.607C306.21 155.634 298.351 159.341 291.408 164.515C284.466 169.689 278.575 176.23 274.071 183.764ZM379.937 251.711C373.744 262.061 364.73 270.279 354.036 275.323C343.345 280.367 331.447 282.012 319.851 280.05C308.255 278.087 297.48 272.605 288.89 264.297C280.299 255.989 274.28 245.229 271.592 233.375C268.904 221.523 269.668 209.11 273.788 197.707C277.908 186.304 285.198 176.424 294.738 169.315C304.277 162.204 315.637 158.187 327.381 157.767C339.123 157.348 350.718 160.546 360.715 166.958C367.341 171.214 373.1 176.783 377.654 183.346C382.22 189.909 385.474 197.339 387.26 205.209C389.046 213.079 389.321 221.237 388.063 229.215C386.806 237.194 384.037 244.838 379.937 251.711Z" fill="#131F2D"/>
<path d="M498.367 288.616C495.429 265.814 470.754 252.933 470.754 252.933C470.754 252.933 472.846 303.75 477.063 302.25C484.28 299.684 494.172 299.63 498.367 288.616Z" fill="#00A3FE"/>
<path d="M450.147 416.793C450.147 416.793 449.957 420.6 447.474 421.621C444.99 422.64 437.847 423.399 440.446 425.927C441.936 427.38 449.154 426.687 451.183 426.73C453.212 426.772 455.093 427.773 456.646 426.387C458.348 424.864 456.889 416.987 456.889 416.987C456.889 416.987 455.103 417.897 453.529 417.809C451.267 417.683 450.147 416.793 450.147 416.793Z" fill="#131F2D"/>
<path d="M432.331 320.572C432.806 328.494 433.704 338.778 435.364 351.358C438.523 375.345 442.359 399.518 444.251 411.112C444.547 413.093 445.477 414.914 446.893 416.281C448.309 417.648 450.126 418.481 452.05 418.646L454.152 418.795C458.369 419.091 461.898 415.369 461.708 410.823L458.401 332.652L458.084 320.218C458.084 320.218 431.549 307.577 432.331 320.572Z" fill="#364154"/>
<path d="M473.417 417.455C473.417 417.455 473.227 421.262 470.743 422.278C468.26 423.296 461.116 424.056 463.716 426.589C465.206 428.039 472.413 427.351 474.453 427.392C476.482 427.434 478.363 428.436 479.905 427.046C481.607 425.523 480.149 417.646 480.149 417.646C480.149 417.646 478.373 418.555 476.799 418.468C474.527 418.342 473.417 417.455 473.417 417.455Z" fill="#131F2D"/>
<path d="M455.178 301.588C455.178 301.588 454.248 318.812 458.623 352.025C461.793 376.012 465.629 400.185 467.52 411.779C467.816 413.759 468.746 415.581 470.152 416.948C471.568 418.315 473.385 419.149 475.319 419.313L477.422 419.461C481.639 419.758 485.168 416.035 484.967 411.489L481.66 333.319L481.015 307.603L455.178 301.588Z" fill="#364154"/>
<path d="M459.669 358.787L459.352 358.741C459.352 358.6 461.159 344.482 462.511 339.414C463.864 334.347 470.152 329.896 470.226 329.838L470.405 330.117C470.352 330.158 464.16 334.507 462.828 339.502C461.497 344.497 459.669 358.645 459.669 358.787Z" fill="#131F2D"/>
<path d="M459.743 248.642L458.115 243.49L457.64 241.99L454.839 233.169L454.469 241.926L454.248 247.195L454.184 248.863C454.131 250.005 453.423 250.23 452.567 251.216C452.219 251.597 449.999 254.029 452.525 255.119C455.674 256.482 461.56 254.422 463.8 251.722C463.779 251.734 460.271 250.31 459.743 248.642Z" fill="#FF7955"/>
<path d="M463.071 237.978C464.022 232.845 461.264 227.984 456.911 227.122C452.567 226.261 448.277 229.724 447.326 234.858C446.385 239.993 449.133 244.854 453.487 245.715C457.83 246.577 462.12 243.113 463.071 237.978Z" fill="#FF7955"/>
<path d="M450.75 233.169C446.163 233.337 443.934 230.751 443.881 228.357C443.817 225.284 445.793 222.565 448.097 223.708C450.401 224.85 449.418 222.048 451.627 221.751C455.769 221.195 456.551 224.073 459.933 224.214C464.403 224.396 469.486 231.673 465.756 236.984C465.756 236.984 454.374 233.035 450.75 233.169Z" fill="#131F2D"/>
<path d="M446.66 230.069C446.66 230.069 451.564 234.68 450.919 237.277C450.274 239.874 450.433 240.887 453.297 242.272C456.16 243.658 453.635 245.901 457.45 246.079C461.265 246.258 465.935 241.838 465.935 234.596C465.914 232.152 465.079 229.79 463.558 227.918L446.66 230.069Z" fill="#131F2D"/>
<path d="M448.446 237.163C448.689 236.795 449.069 236.538 449.492 236.442C449.915 236.346 450.348 236.418 450.728 236.645C450.898 236.771 451.035 236.932 451.141 237.119C451.246 237.305 451.32 237.511 451.341 237.726C451.373 237.941 451.352 238.158 451.289 238.365C451.236 238.572 451.13 238.764 450.993 238.93C450.75 239.297 450.369 239.554 449.947 239.649C449.524 239.744 449.091 239.671 448.71 239.443C448.541 239.318 448.404 239.157 448.298 238.971C448.192 238.785 448.118 238.579 448.097 238.364C448.065 238.149 448.087 237.932 448.15 237.725C448.203 237.518 448.309 237.327 448.446 237.163Z" fill="#FFB27D"/>
<path d="M467.594 238.982C467.573 238.981 467.541 238.971 467.52 238.955C467.499 238.937 467.489 238.914 467.478 238.887C467.277 238.246 466.865 237.704 466.295 237.364C466.284 237.358 466.273 237.348 466.263 237.336C466.252 237.324 466.252 237.31 466.242 237.294C466.242 237.279 466.242 237.264 466.242 237.248C466.242 237.233 466.242 237.217 466.252 237.204C466.263 237.191 466.273 237.178 466.284 237.168C466.295 237.158 466.305 237.151 466.326 237.146C466.337 237.142 466.347 237.141 466.369 237.142C466.379 237.143 466.4 237.147 466.411 237.155C467.034 237.53 467.499 238.135 467.711 238.85C467.711 238.865 467.711 238.88 467.711 238.896C467.711 238.911 467.7 238.926 467.689 238.94C467.689 238.954 467.679 238.965 467.658 238.975C467.647 238.984 467.637 238.99 467.626 238.994L467.594 238.982Z" fill="#131F2D"/>
<path d="M466.358 236.809C466.326 236.809 466.295 236.798 466.273 236.777C466.252 236.756 466.242 236.727 466.242 236.698C466.242 236.683 466.242 236.667 466.242 236.652C466.252 236.638 466.252 236.624 466.263 236.612C466.273 236.6 466.294 236.592 466.305 236.584C466.316 236.577 466.326 236.573 466.347 236.573C466.347 236.573 467.594 236.485 467.774 235.548C467.785 235.517 467.806 235.49 467.827 235.472C467.848 235.455 467.88 235.447 467.911 235.453C467.943 235.459 467.964 235.478 467.985 235.504C468.006 235.53 468.007 235.562 468.007 235.594C467.785 236.71 466.421 236.804 466.358 236.809Z" fill="#131F2D"/>
<path d="M448.795 223.524C448.71 223.524 448.626 223.512 448.552 223.486C448.214 223.377 447.896 223.213 447.611 222.999C447.347 222.771 447.03 222.619 446.692 222.559C446.364 222.498 446.015 222.532 445.698 222.656C445.677 222.662 445.667 222.663 445.656 222.662C445.635 222.659 445.624 222.655 445.603 222.647C445.593 222.641 445.582 222.63 445.572 222.618C445.561 222.606 445.561 222.592 445.551 222.576C445.551 222.562 445.551 222.545 445.551 222.53C445.551 222.515 445.551 222.499 445.561 222.485C445.572 222.472 445.582 222.46 445.593 222.45C445.603 222.44 445.614 222.433 445.635 222.428C445.984 222.296 446.364 222.262 446.734 222.328C447.104 222.395 447.442 222.561 447.727 222.809C448.002 223.009 448.298 223.163 448.615 223.266C448.689 223.293 448.774 223.302 448.858 223.289C448.943 223.277 449.027 223.244 449.101 223.193C449.598 222.839 449.725 221.671 449.725 221.671C449.725 221.64 449.746 221.611 449.767 221.592C449.788 221.572 449.82 221.562 449.851 221.564C449.862 221.565 449.883 221.57 449.894 221.577C449.904 221.585 449.915 221.595 449.925 221.608C449.936 221.62 449.947 221.634 449.947 221.65C449.957 221.665 449.957 221.682 449.947 221.697C449.947 221.746 449.82 222.969 449.217 223.387C449.091 223.477 448.943 223.525 448.795 223.524Z" fill="#131F2D"/>
<path d="M459.584 223.832C458.506 223.783 457.471 223.36 456.646 222.63C456.636 222.62 456.625 222.608 456.615 222.594C456.604 222.579 456.604 222.563 456.594 222.547C456.594 222.53 456.594 222.514 456.604 222.497C456.604 222.482 456.615 222.468 456.625 222.454C456.636 222.442 456.646 222.433 456.667 222.426C456.678 222.419 456.699 222.415 456.71 222.415C456.731 222.415 456.741 222.418 456.763 222.426C456.773 222.433 456.784 222.442 456.794 222.454C456.794 222.454 458.316 223.837 460.07 223.558C460.102 223.554 460.134 223.563 460.155 223.58C460.186 223.599 460.197 223.627 460.208 223.658C460.208 223.689 460.197 223.721 460.186 223.746C460.165 223.772 460.134 223.79 460.102 223.795C459.933 223.82 459.764 223.834 459.584 223.832Z" fill="#131F2D"/>
<path d="M449.672 239.771C449.566 239.774 449.461 239.76 449.355 239.729C449.344 239.728 449.344 239.725 449.334 239.72C449.323 239.716 449.323 239.71 449.313 239.703C449.313 239.696 449.313 239.688 449.313 239.68C449.302 239.671 449.302 239.663 449.313 239.654C449.313 239.647 449.313 239.639 449.323 239.632C449.323 239.627 449.334 239.622 449.344 239.619C449.344 239.616 449.355 239.615 449.366 239.615C449.376 239.616 449.387 239.618 449.387 239.623C449.429 239.623 450.422 239.946 451.13 238.576C451.13 238.568 451.141 238.563 451.141 238.557C451.151 238.553 451.151 238.549 451.162 238.547C451.172 238.545 451.173 238.544 451.183 238.545C451.194 238.546 451.194 238.548 451.204 238.553C451.215 238.559 451.225 238.571 451.225 238.586C451.236 238.6 451.236 238.615 451.225 238.628C450.718 239.607 450.063 239.771 449.672 239.771Z" fill="#131F2D"/>
<path d="M432.331 320.572C432.331 320.572 465.608 318.668 481.395 322.661L481.638 317.926L459.489 311.053L441.609 311.514L436.124 312.747L432.246 319.048L432.331 320.572Z" fill="#131F2D"/>
<path d="M478.447 262.886C478.447 262.886 475.509 249.636 457.597 249.636C426.37 249.636 435.131 276.429 432.246 319.029C432.246 319.029 452.377 314.437 481.501 320.552C481.501 320.552 484.344 297.483 480.677 277.982C479.705 272.826 479.874 267.363 478.447 262.886Z" fill="#00A3FE"/>
<path d="M454.005 249.636C454.005 249.636 443.987 249.788 436.536 257.185C429.097 264.584 419.502 274.769 417.462 280.628C414.958 287.862 419.576 295.096 425.43 295.241C431.284 295.386 436.536 290.927 436.536 290.927L454.005 249.636Z" fill="#00A3FE"/>
<path d="M482.452 310.154H482.23C483.097 293.443 480.286 276.337 480.254 276.166L480.476 276.127C480.487 276.287 483.308 293.421 482.452 310.154Z" fill="#131F2D"/>
<path d="M433.07 293.329L432.954 293.135C438.84 289.48 446.502 279.859 446.576 279.76L446.745 279.908C446.671 280.004 438.988 289.659 433.07 293.329Z" fill="#131F2D"/>
<path d="M392.195 276.135C392.121 280.861 414.704 298.131 428.252 295.244C442.655 292.199 424.881 275.576 424.881 275.576L398.335 269.244C398.335 269.244 392.269 271.35 392.195 276.135Z" fill="#00A3FE"/>
<path d="M398.335 269.244C398.409 268.694 398.356 268.133 398.166 267.612C397.986 267.089 397.68 266.622 397.289 266.248C395.926 265.003 394.51 259.325 393.611 260.749C392.724 262.173 393.548 266.704 392.195 267.192C390.843 267.679 398.335 269.244 398.335 269.244Z" fill="#FF7955"/>
<path d="M408.269 168.275H406.937C406.757 168.275 406.588 168.347 406.472 168.474C406.345 168.601 406.282 168.773 406.282 168.953V175.045C406.282 175.225 406.208 175.399 406.081 175.527C405.965 175.654 405.796 175.726 405.616 175.726H405.151C404.971 175.725 404.813 175.653 404.686 175.526C404.57 175.398 404.496 175.224 404.496 175.045V168.953C404.496 168.773 404.422 168.601 404.306 168.474C404.179 168.347 404.01 168.275 403.841 168.275H402.541C402.361 168.275 402.192 168.203 402.076 168.076C401.949 167.948 401.875 167.774 401.875 167.593V167.461C401.875 167.28 401.949 167.107 402.076 166.978C402.192 166.85 402.361 166.779 402.541 166.779H408.269C408.448 166.779 408.607 166.85 408.733 166.978C408.86 167.107 408.924 167.28 408.924 167.461V167.593C408.924 167.774 408.86 167.948 408.733 168.076C408.607 168.203 408.448 168.275 408.269 168.275Z" fill="#00A3FE"/>
<path d="M414.472 171.842H412.358C412.189 171.842 412.02 171.915 411.904 172.042C411.777 172.168 411.713 172.341 411.713 172.521V173.56C411.713 173.74 411.777 173.913 411.904 174.04C412.02 174.169 412.189 174.241 412.358 174.242H415.063C415.148 174.242 415.243 174.26 415.317 174.294C415.401 174.328 415.465 174.378 415.528 174.442C415.592 174.505 415.645 174.58 415.676 174.663C415.708 174.745 415.718 174.834 415.718 174.923V175.045C415.718 175.134 415.708 175.223 415.676 175.305C415.645 175.388 415.592 175.463 415.528 175.527C415.465 175.59 415.401 175.64 415.317 175.675C415.243 175.709 415.148 175.726 415.063 175.726H410.583C410.414 175.726 410.245 175.655 410.118 175.527C409.991 175.399 409.927 175.225 409.927 175.045V167.43C409.927 167.249 409.991 167.076 410.118 166.948C410.245 166.821 410.414 166.748 410.583 166.748H415.053C415.232 166.749 415.391 166.822 415.518 166.95C415.645 167.077 415.708 167.25 415.708 167.43V167.564C415.708 167.744 415.645 167.916 415.518 168.044C415.391 168.171 415.232 168.243 415.053 168.245H412.358C412.189 168.245 412.02 168.316 411.904 168.443C411.777 168.57 411.713 168.743 411.713 168.923V169.684C411.713 169.864 411.777 170.037 411.904 170.165C412.02 170.292 412.189 170.365 412.358 170.366H414.472C414.641 170.366 414.81 170.437 414.936 170.564C415.063 170.691 415.127 170.863 415.127 171.043V171.131C415.137 171.223 415.116 171.315 415.084 171.401C415.053 171.487 415.01 171.566 414.947 171.633C414.884 171.699 414.81 171.753 414.725 171.789C414.651 171.825 414.556 171.844 414.472 171.842Z" fill="#00A3FE"/>
<path d="M421.266 173.373C421.266 173.23 421.245 173.087 421.203 172.951C421.15 172.814 421.066 172.694 420.949 172.604C420.791 172.477 420.611 172.372 420.432 172.292C420.157 172.166 419.872 172.056 419.576 171.964C419.206 171.839 418.836 171.692 418.477 171.522C418.149 171.372 417.832 171.176 417.557 170.94C417.304 170.731 417.092 170.472 416.934 170.178C416.775 169.862 416.701 169.512 416.701 169.157C416.701 168.802 416.775 168.452 416.934 168.134C417.092 167.821 417.314 167.55 417.589 167.342C417.895 167.113 418.234 166.94 418.593 166.832C419.016 166.71 419.449 166.65 419.882 166.653C420.326 166.647 420.77 166.716 421.193 166.859C421.562 166.982 421.9 167.177 422.196 167.433C422.471 167.673 422.683 167.973 422.831 168.309C422.873 168.383 422.894 168.455 422.926 168.526C422.957 168.628 422.968 168.738 422.947 168.844C422.936 168.951 422.894 169.051 422.831 169.139C422.767 169.227 422.693 169.297 422.598 169.346C422.503 169.396 422.397 169.421 422.302 169.421H421.816C421.679 169.42 421.552 169.374 421.436 169.289C421.319 169.205 421.235 169.085 421.193 168.95C421.193 168.95 421.193 168.914 421.193 168.899C421.14 168.742 421.045 168.601 420.928 168.485C420.802 168.365 420.654 168.274 420.484 168.218C420.284 168.149 420.072 168.117 419.85 168.123C419.65 168.12 419.438 168.146 419.248 168.203C419.09 168.249 418.942 168.324 418.815 168.423C418.709 168.512 418.625 168.627 418.561 168.759C418.508 168.885 418.477 169.023 418.477 169.162C418.477 169.318 418.519 169.471 418.593 169.605C418.667 169.739 418.783 169.848 418.91 169.924C419.311 170.171 419.745 170.358 420.189 170.48C420.622 170.614 421.034 170.783 421.436 170.986C421.763 171.147 422.07 171.359 422.334 171.614C422.566 171.836 422.746 172.104 422.883 172.403C423.01 172.716 423.063 173.053 423.063 173.393C423.074 173.756 422.989 174.116 422.841 174.443C422.693 174.745 422.471 175.006 422.207 175.205C421.911 175.428 421.573 175.592 421.214 175.688C420.802 175.808 420.358 175.865 419.924 175.859C419.639 175.859 419.354 175.833 419.068 175.783C418.794 175.733 418.519 175.653 418.255 175.543C417.991 175.447 417.748 175.319 417.515 175.163C417.304 175.005 417.103 174.815 416.934 174.599C416.775 174.375 416.638 174.124 416.553 173.856V173.815C416.522 173.713 416.511 173.605 416.532 173.5C416.543 173.395 416.585 173.296 416.648 173.209C416.712 173.124 416.796 173.055 416.881 173.007C416.976 172.96 417.082 172.934 417.177 172.935H417.642C417.779 172.935 417.917 172.985 418.033 173.075C418.149 173.165 418.234 173.291 418.276 173.434C418.286 173.499 418.308 173.564 418.339 173.625C418.413 173.805 418.53 173.964 418.677 174.085C418.847 174.206 419.026 174.293 419.227 174.341C419.449 174.396 419.681 174.423 419.924 174.421C420.125 174.423 420.326 174.398 420.527 174.344C420.675 174.301 420.812 174.229 420.939 174.131C421.055 174.046 421.14 173.935 421.193 173.807C421.245 173.67 421.277 173.522 421.266 173.373Z" fill="#00A3FE"/>
<path d="M430.111 168.275H428.78C428.6 168.275 428.431 168.347 428.315 168.474C428.188 168.601 428.125 168.773 428.125 168.953V175.045C428.125 175.225 428.051 175.399 427.924 175.527C427.808 175.655 427.639 175.726 427.459 175.726H426.994C426.825 175.725 426.656 175.653 426.529 175.526C426.413 175.398 426.339 175.225 426.339 175.045V168.953C426.339 168.773 426.265 168.601 426.149 168.474C426.022 168.347 425.853 168.275 425.684 168.275H424.394C424.215 168.274 424.056 168.202 423.929 168.075C423.803 167.946 423.739 167.774 423.739 167.593V167.461C423.739 167.369 423.75 167.278 423.781 167.192C423.813 167.107 423.855 167.029 423.919 166.963C423.982 166.896 424.056 166.844 424.141 166.807C424.215 166.771 424.299 166.753 424.394 166.753H430.122C430.302 166.753 430.471 166.824 430.587 166.952C430.714 167.079 430.777 167.254 430.777 167.433V167.567C430.788 167.66 430.767 167.752 430.735 167.839C430.703 167.926 430.661 168.005 430.598 168.07C430.534 168.137 430.46 168.189 430.376 168.225C430.291 168.26 430.206 168.277 430.111 168.275Z" fill="#00A3FE"/>
<path d="M433.028 175.726H432.553C432.383 175.725 432.214 175.653 432.088 175.526C431.971 175.398 431.897 175.225 431.897 175.045V167.43C431.897 167.25 431.971 167.077 432.088 166.95C432.214 166.822 432.383 166.749 432.553 166.748H433.028C433.197 166.748 433.366 166.821 433.493 166.948C433.609 167.076 433.683 167.249 433.683 167.43V175.045C433.683 175.225 433.609 175.399 433.493 175.527C433.366 175.655 433.197 175.726 433.028 175.726Z" fill="#00A3FE"/>
<path d="M441.704 175.726H440.954C440.837 175.726 440.721 175.696 440.626 175.639C440.531 175.582 440.446 175.498 440.394 175.399L438.333 171.896C438.259 171.771 438.143 171.675 438.005 171.621C437.879 171.567 437.731 171.56 437.593 171.6C437.456 171.64 437.34 171.725 437.244 171.842C437.16 171.96 437.118 172.102 437.118 172.25V175.045C437.118 175.225 437.044 175.399 436.917 175.527C436.801 175.655 436.632 175.726 436.452 175.726H435.987C435.818 175.726 435.649 175.655 435.522 175.527C435.395 175.399 435.332 175.225 435.332 175.045V167.43C435.332 167.249 435.395 167.076 435.522 166.948C435.649 166.821 435.818 166.748 435.987 166.748H436.748C436.853 166.749 436.97 166.779 437.065 166.836C437.16 166.894 437.244 166.976 437.308 167.076L439.369 170.586C439.442 170.713 439.559 170.812 439.686 170.867C439.823 170.921 439.971 170.929 440.108 170.89C440.246 170.85 440.362 170.765 440.457 170.646C440.542 170.529 440.584 170.384 440.584 170.236V167.43C440.584 167.25 440.658 167.077 440.785 166.95C440.901 166.822 441.07 166.749 441.239 166.748H441.704C441.884 166.748 442.053 166.821 442.169 166.948C442.296 167.076 442.359 167.249 442.359 167.43V175.045C442.359 175.225 442.296 175.399 442.169 175.527C442.053 175.655 441.884 175.726 441.704 175.726Z" fill="#00A3FE"/>
<path d="M450.76 174.318C450.76 174.413 450.739 174.507 450.708 174.595C450.665 174.682 450.612 174.761 450.538 174.824C450.486 174.881 450.412 174.941 450.338 175.003C450.137 175.164 449.904 175.299 449.672 175.406C449.365 175.544 449.049 175.651 448.721 175.722C448.298 175.811 447.875 175.854 447.453 175.848C446.935 175.855 446.407 175.758 445.921 175.562C445.477 175.379 445.065 175.091 444.737 174.721C444.399 174.327 444.135 173.864 443.976 173.362C443.786 172.767 443.691 172.142 443.701 171.515V170.986C443.691 170.358 443.786 169.734 443.966 169.136C444.124 168.634 444.367 168.17 444.705 167.772C445.012 167.405 445.403 167.117 445.846 166.931C446.322 166.733 446.829 166.634 447.337 166.642C447.833 166.63 448.33 166.703 448.805 166.859C449.186 166.986 449.535 167.194 449.83 167.472C450.105 167.735 450.327 168.055 450.475 168.412C450.517 168.512 450.56 168.615 450.591 168.72C450.623 168.823 450.634 168.932 450.612 169.038C450.602 169.145 450.56 169.245 450.496 169.333C450.433 169.421 450.359 169.492 450.264 169.54C450.169 169.59 450.073 169.615 449.968 169.615H449.556C449.418 169.614 449.281 169.567 449.165 169.482C449.059 169.398 448.974 169.278 448.932 169.144L448.879 169.002C448.805 168.826 448.7 168.666 448.573 168.534C448.436 168.399 448.266 168.296 448.087 168.234C447.865 168.16 447.632 168.125 447.4 168.131C447.125 168.116 446.861 168.174 446.618 168.299C446.375 168.424 446.164 168.613 446.016 168.846C445.656 169.491 445.487 170.232 445.53 170.974V171.515C445.487 172.263 445.667 173.009 446.058 173.644C446.227 173.879 446.449 174.069 446.713 174.195C446.967 174.321 447.252 174.38 447.537 174.367C447.728 174.37 447.918 174.356 448.097 174.325C448.235 174.302 448.372 174.266 448.509 174.218C448.605 174.181 448.7 174.134 448.784 174.078C448.858 174.033 448.911 173.982 448.975 173.925V173.061C448.975 172.881 448.9 172.707 448.784 172.579C448.657 172.451 448.488 172.38 448.319 172.38H448.002C447.833 172.38 447.664 172.308 447.548 172.181C447.421 172.054 447.347 171.882 447.347 171.702C447.347 171.521 447.421 171.348 447.537 171.22C447.664 171.092 447.833 171.02 448.002 171.02H450.116C450.2 171.02 450.285 171.038 450.359 171.072C450.443 171.107 450.517 171.156 450.581 171.22C450.634 171.283 450.686 171.359 450.718 171.441C450.75 171.523 450.771 171.612 450.771 171.702L450.76 174.318Z" fill="#00A3FE"/>
</svg>
